# xmcd
#
# Track frame offsets:
#	150
#	18205
#	35757
#	56235
#	76912
#	95522
#	117397
#	136365
#	155015
#	174762
#
# Disc length: 2583 seconds
#
# Revision: 7
# Processed by: cddbd v1.5.2PL0 Copyright (c) Steve Scherf et al.
# Submitted via: EasyCDDAExtractor 15.3.0.1
#
DISCID=7d0a150a
DTITLE=Celine Dion - Unison
DYEAR=1990
DGENRE=Pop
TTITLE0=(If There Was) Any Other Way
TTITLE1=If Love Is Out The Question
TTITLE2=Where Does My Heart Beat Now
TTITLE3=The Last To Know
TTITLE4=I'm Loving Every Moment With You
TTITLE5=Love By Another Name
TTITLE6=Unison
TTITLE7=I Feel Too Much
TTITLE8=If We Could Start Over
TTITLE9=Have A Heart
EXTD=CD US 1990 (Epic EK 46893) UPC 0074644689327\n
EXTT0=
EXTT1=
EXTT2=
EXTT3=
EXTT4=
EXTT5=
EXTT6=
EXTT7=
EXTT8=
EXTT9=
PLAYORDER=
